<svg xmlns="http://www.w3.org/2000/svg" width="26.446" height="25.304" viewBox="0 0 26.446 25.304">
  <g id="Group" transform="translate(-12.74 -14.3)">
    <path id="Compound_Path" data-name="Compound Path" d="M39.165,62.568a9.63,9.63,0,0,0-6.814-8.34.71.71,0,0,0-.745.177,8.016,8.016,0,0,1-5.678,2.023,8.016,8.016,0,0,1-5.678-2.023.71.71,0,0,0-.745-.177,9.607,9.607,0,0,0-6.743,8.34,2.449,2.449,0,0,0,.568,1.916,2.484,2.484,0,0,0,1.881.852H36.716a2.484,2.484,0,0,0,1.881-.852,2.449,2.449,0,0,0,.568-1.916Zm-1.668.994a1.065,1.065,0,0,1-.816.355H15.21a1.065,1.065,0,0,1-.816-.355.994.994,0,0,1-.248-.816,8.287,8.287,0,0,1,5.465-7.027,9.722,9.722,0,0,0,6.353,2.129,9.791,9.791,0,0,0,6.353-2.129,8.291,8.291,0,0,1,5.465,7.062.994.994,0,0,1-.248.781Z" transform="translate(0 -25.732)" fill="#fff"/>
    <path id="Compound_Path-2" data-name="Compound Path" d="M38.969,28.176c3.336,0,6.069-3.123,6.069-6.92S42.3,14.3,38.969,14.3,32.9,17.423,32.9,21.22,35.633,28.176,38.969,28.176Zm0-12.421c2.555,0,4.649,2.484,4.649,5.5s-2.094,5.5-4.649,5.5-4.649-2.484-4.649-5.5,2.094-5.536,4.649-5.536Z" transform="translate(-13.006 0)" fill="#fff"/>
  </g>
</svg>
