<svg xmlns="http://www.w3.org/2000/svg" width="34.809" height="27.607" viewBox="0 0 34.809 27.607">
  <g id="Group_706" data-name="Group 706" transform="translate(4360.673 690.517)">
    <g id="cart_basket" data-name="cart basket" transform="translate(-4366.227 -693.031)">
      <path id="Path_92" data-name="Path 92" d="M29.1,11.517H26.844L20.085,2.956a1.21,1.21,0,0,0-1.674-.193,1.133,1.133,0,0,0-.193,1.609h0l5.6,7.146H6.952L12.81,4.372a1.187,1.187,0,0,0-.129-1.609h0a1.21,1.21,0,0,0-1.674.193L3.927,11.517H1.8A1.83,1.83,0,0,0,0,13.256v1.159a1.8,1.8,0,0,0,1.545,1.738L4.764,28.062c.129.515.644,2.06,2.06,2.06H24.011a2.321,2.321,0,0,0,2.06-1.931L29.29,16.152A1.751,1.751,0,0,0,30.9,14.414V13.256A1.787,1.787,0,0,0,29.1,11.517Zm-17.51,12.81a1.287,1.287,0,1,1-2.575,0V19.693a1.287,1.287,0,1,1,2.575,0v4.635Zm5.15,0a1.287,1.287,0,1,1-2.575,0V19.693a1.287,1.287,0,0,1,2.575,0v4.635Zm5.15,0a1.287,1.287,0,0,1-2.575,0V19.693a1.287,1.287,0,0,1,2.575,0v4.635Z" transform="translate(5.554)" fill="#fff"/>
    </g>
    <g id="Group_584" data-name="Group 584" transform="translate(-5956.864 -747)">
      <g id="Group_583" data-name="Group 583" transform="translate(-1 1)">
        <circle id="Ellipse_4" data-name="Ellipse 4" cx="7" cy="7" r="7" transform="translate(1618 56)" fill="#0a472e"/>
        <text id="_5" data-name="5" transform="translate(1623 66)" fill="#fff" font-size="8" font-family="SegoeUI, Segoe UI"><tspan x="0" y="0">5</tspan></text>
      </g>
    </g>
  </g>
</svg>
