<svg xmlns="http://www.w3.org/2000/svg" width="40.925" height="54.54" viewBox="0 0 40.925 54.54">
  <path id="Path_314" data-name="Path 314" d="M15.887,5.615a20.464,20.464,0,0,0-8.651,35L.748,52.051A1.077,1.077,0,0,0,1.9,53.637l7.368-1.53,2.59,7.3a1.077,1.077,0,0,0,1.951.172l7.15-12.57,7.15,12.57a1.077,1.077,0,0,0,.936.544c.032,0,.064,0,.1,0a1.078,1.078,0,0,0,.92-.713l2.589-7.3,7.368,1.53a1.077,1.077,0,0,0,1.156-1.586L34.689,40.616a20.464,20.464,0,0,0-8.65-35A1.077,1.077,0,1,0,25.505,7.7a18.308,18.308,0,1,1-9.086,0,1.077,1.077,0,1,0-.533-2.087ZM13.1,56.465,10.988,50.5a1.077,1.077,0,0,0-1.234-.695L3.8,51.044l5.135-9.05a20.506,20.506,0,0,0,10.226,3.831Zm19.066-6.659a1.077,1.077,0,0,0-1.234.695l-2.116,5.964L22.768,45.825a20.507,20.507,0,0,0,10.226-3.831l5.135,9.05Zm0,0" transform="translate(-0.5 -5.581)" fill="#36a62f"/>
</svg>
