<svg xmlns="http://www.w3.org/2000/svg" width="41.544" height="55" viewBox="0 0 41.544 55">
  <g id="cultivation" transform="translate(6 4)">
    <g id="Group_936" data-name="Group 936" transform="translate(-6 -4)">
      <path id="Path_300" data-name="Path 300" d="M103.369,140.852H97.83l-4.9-2.784a.806.806,0,1,0-.8,1.4l2.433,1.384H72.233l7.105-4.041a8.218,8.218,0,0,1,8.128,0l1.4.8a.806.806,0,1,0,.8-1.4l-1.4-.8a9.823,9.823,0,0,0-1.148-.557,6.527,6.527,0,0,0,1.793-1.25,7.716,7.716,0,0,0,1.973-5.388.806.806,0,0,0-.763-.763,7.715,7.715,0,0,0-5.388,1.973,5.991,5.991,0,0,0-.522.6V124.2a6.6,6.6,0,0,0,4.252,1.518,5.521,5.521,0,0,0,1.023-.089.806.806,0,0,0,.641-.937,9.449,9.449,0,0,0-1.19-2.952q.414.032.826.032a13.81,13.81,0,0,0,7.123-2.2.806.806,0,0,0,0-1.327,14.14,14.14,0,0,0-5.574-2.09q.567-.466,1.078-.977c.156-.156.313-.321.466-.489a.806.806,0,1,0-1.191-1.085c-.137.15-.276.3-.415.435a14.071,14.071,0,0,1-2.812,2.163.806.806,0,0,0,.484,1.5c.279-.026.562-.039.841-.039a11.8,11.8,0,0,1,5.02,1.25,11.8,11.8,0,0,1-5.02,1.25,9.745,9.745,0,0,1-2.635-.374.806.806,0,0,0-.748,1.382c.1.089.2.176.287.268a7.262,7.262,0,0,1,1.618,2.658,4.712,4.712,0,0,1-4.072-2.394v-2.171l1.717-1.717a.806.806,0,0,0-1.139-1.139l-.578.578v-2.287a.806.806,0,0,0-1.611,0v2.287l-.578-.578a.806.806,0,0,0-1.139,1.139l1.717,1.717V121.7a4.69,4.69,0,0,1-4.076,2.4,7.228,7.228,0,0,1,1.622-2.662c.092-.092.186-.18.287-.268a.806.806,0,0,0-.748-1.382,9.747,9.747,0,0,1-2.635.374,11.8,11.8,0,0,1-5.02-1.25,11.8,11.8,0,0,1,5.02-1.25c.279,0,.562.013.841.039a.806.806,0,0,0,.484-1.5,14.078,14.078,0,0,1-2.812-2.163,17.358,17.358,0,0,1-4.054-7.027,17.358,17.358,0,0,1,7.028,4.055,13.531,13.531,0,0,1,1.348,1.574.806.806,0,0,0,1.44-.632,15.169,15.169,0,0,1-.29-2.919,19.1,19.1,0,0,1,2.371-8.716,19.1,19.1,0,0,1,2.371,8.716,15.17,15.17,0,0,1-.29,2.919.806.806,0,0,0,1.441.632,13.506,13.506,0,0,1,1.349-1.575,17.359,17.359,0,0,1,7.029-4.055,19.09,19.09,0,0,1-1.566,3.688.806.806,0,1,0,1.406.786,19.574,19.574,0,0,0,2.075-5.453.806.806,0,0,0-.938-.938,19.252,19.252,0,0,0-8.9,4.6q.011-.3.011-.6a20.843,20.843,0,0,0-3.319-10.753.806.806,0,0,0-1.327,0,20.845,20.845,0,0,0-3.319,10.753q0,.3.011.6a19.255,19.255,0,0,0-8.905-4.6.806.806,0,0,0-.938.938,19.162,19.162,0,0,0,4.832,9.145q.51.51,1.078.977a14.14,14.14,0,0,0-5.574,2.09.806.806,0,0,0,0,1.327,13.81,13.81,0,0,0,7.123,2.2q.411,0,.826-.032a9.448,9.448,0,0,0-1.19,2.952.806.806,0,0,0,.641.937A6.616,6.616,0,0,0,82.6,124.2v5.823a5.992,5.992,0,0,0-.522-.6,7.714,7.714,0,0,0-5.387-1.974.806.806,0,0,0-.763.763,8.013,8.013,0,0,0,.15,1.749.806.806,0,1,0,1.583-.3c-.038-.2-.065-.391-.084-.56a5.68,5.68,0,0,1,3.362,1.463,6.359,6.359,0,0,1,1.574,3.472,6.443,6.443,0,0,1-3.393-1.5.806.806,0,1,0-1.109,1.169,6.592,6.592,0,0,0,1.683,1.144,9.884,9.884,0,0,0-1.148.558l-9.568,5.442H63.436a.806.806,0,0,0,0,1.611h39.933a.806.806,0,1,0,0-1.611Zm-17.5-10.288A5.681,5.681,0,0,1,89.23,129.1a5.682,5.682,0,0,1-1.462,3.361,6.358,6.358,0,0,1-3.473,1.574A6.358,6.358,0,0,1,85.869,130.564Z" transform="translate(-62.63 -87.463)" fill="#36a62f"/>
      <path id="Path_301" data-name="Path 301" d="M227.938,8.665a3.39,3.39,0,0,0,3.386-3.386c0-2.148-2.527-4.751-2.815-5.041a.806.806,0,0,0-1.143,0c-.288.29-2.815,2.893-2.815,5.041A3.39,3.39,0,0,0,227.938,8.665Zm0-6.666c.838.984,1.775,2.375,1.775,3.28a1.775,1.775,0,0,1-3.55,0C226.163,4.374,227.1,2.983,227.938,2Z" transform="translate(-207.158 0)" fill="#36a62f"/>
      <path id="Path_302" data-name="Path 302" d="M311.486,84.428a3.39,3.39,0,0,0,3.386-3.386c0-2.148-2.527-4.751-2.815-5.041a.806.806,0,0,0-1.143,0c-.288.29-2.815,2.893-2.815,5.041A3.39,3.39,0,0,0,311.486,84.428Zm0-6.664c.751.885,1.777,2.308,1.777,3.278a1.775,1.775,0,1,1-3.55,0C309.711,80.137,310.646,78.748,311.484,77.764Z" transform="translate(-281.731 -67.624)" fill="#36a62f"/>
      <path id="Path_303" data-name="Path 303" d="M144.241,84.428a3.39,3.39,0,0,0,3.386-3.386c0-2.148-2.527-4.751-2.815-5.041a.806.806,0,0,0-1.143,0c-.288.29-2.815,2.893-2.815,5.041A3.39,3.39,0,0,0,144.241,84.428Zm0-6.666c.838.984,1.775,2.375,1.775,3.28a1.775,1.775,0,1,1-3.55,0C142.466,80.137,143.4,78.746,144.241,77.761Z" transform="translate(-132.452 -67.624)" fill="#36a62f"/>
    </g>
  </g>
</svg>
